<svg xmlns="http://www.w3.org/2000/svg" viewBox="0 0 168.87 60"><defs><style>.cls-1{fill:#8b93a5;}</style></defs><title>Audi</title><g id="Layer_2" data-name="Layer 2"><g id="Layer_1-2" data-name="Layer 1"><path class="cls-1" d="M47.75,6.38c12.36-8.5,24.56-8.49,36.74,0q18.29-12.69,36.65-.06a29.45,29.45,0,0,1,40.31,3.82,30.52,30.52,0,0,1,1,38.66,29.57,29.57,0,0,1-41.34,4.95,29.68,29.68,0,0,1-36.61-.11,29.52,29.52,0,0,1-36.65,0c-7.36,5.55-15.57,7.65-24.63,5.69A28.44,28.44,0,0,1,6.38,48.61,30.38,30.38,0,0,1,7.52,10,29.4,29.4,0,0,1,47.75,6.38ZM43,48.86c-8.55-12.63-8.52-25.15,0-37.66-8.61-7-22.26-5.76-30,2.68a23.59,23.59,0,0,0-.5,31.8C20.33,54.55,33.93,56,43,48.86Zm83,0c8,6.88,22.06,5.69,29.77-2.53A23.57,23.57,0,0,0,156.11,14C148.2,5.45,134.3,4.11,126,11.14Q138.82,30,126,48.88Zm-46.25-.15a30.48,30.48,0,0,1,0-37.37C73,5.22,59.81,5.19,52.6,11.3a30.57,30.57,0,0,1,0,37.41C59.21,54.85,72.4,54.87,79.75,48.73Zm9.65,0c7.11,6.18,20.07,6.05,26.76.05q-12.8-18.83,0-37.63c-6.08-6-20.67-5.93-26.77.12Q102,30,89.4,48.76ZM121.1,16c-6.8,8.29-5.82,21.58.08,28C127.38,36.92,127.39,23.27,121.1,16Zm-73.2.09C41.21,24,42,37.52,48,43.9,54,36.27,54,24.05,47.9,16.11Zm36.62.05c-6.44,7.65-6,21,0,27.73C90.68,36.45,90.65,23.27,84.52,16.16Z"/></g></g></svg>