<svg xmlns="http://www.w3.org/2000/svg" viewBox="0 0 87.62 87.62"><defs><style>.cls-1{fill:#8b93a5;}</style></defs><title>Bmw</title><g id="Layer_2" data-name="Layer 2"><g id="Layer_1-2" data-name="Layer 1"><path class="cls-1" d="M44,0A43.81,43.81,0,1,0,87.62,44,43.86,43.86,0,0,0,44,0Zm-.27,84.81A41,41,0,1,1,84.81,44,41,41,0,0,1,43.71,84.81Z"/><path class="cls-1" d="M42.45,17.88A26,26,0,0,0,17.88,42.45c-.05,1.12.3,1.39,1.37,1.38,8.18,0,16.36,0,24.54,0,0-8.18,0-16.36,0-24.54C43.84,18.18,43.58,17.83,42.45,17.88Z"/><path class="cls-1" d="M43.79,43.79v0h0v0Z"/><path class="cls-1" d="M68.36,43.79c-8.18,0-16.36,0-24.54,0,0,8.18,0,16.36,0,24.54,0,1.07.25,1.42,1.37,1.37A26,26,0,0,0,69.73,45.16C69.78,44,69.43,43.78,68.36,43.79Z"/><path class="cls-1" d="M20,28c2-2.24,4.36-4.15,6-6.64,1.35-2,.19-4.15-2.22-4.26-.71,0-1-.15-1.08-.89A2.52,2.52,0,0,0,20.2,14a3.74,3.74,0,0,0-2.19.88,47,47,0,0,0-5.47,5.9A.72.72,0,0,0,12.63,22q3.18,2.94,6.34,5.92C19.29,28.17,19.58,28.46,20,28Zm-3.92-6.2c-.34-.4-1-.68-.45-1.38a34.66,34.66,0,0,1,3.74-3.92.91.91,0,0,1,1.14-.18,1.14,1.14,0,0,1,.56,1,3.29,3.29,0,0,1-.44.88c-1.11,1.22-2.27,2.4-3.39,3.61C16.82,22.22,16.46,22.23,16.07,21.79ZM18.82,23c1.22-1.18,2.37-2.44,3.56-3.65A1.23,1.23,0,0,1,23.8,19a.83.83,0,0,1,.45.9A1.68,1.68,0,0,1,23.67,21c-1.08,1.17-2.2,2.32-3.26,3.52-.56.63-1,.51-1.51,0S18.18,23.58,18.82,23Z"/><path class="cls-1" d="M38,16.18c1.19,0,1.78-.31,1.74-1.66a16.19,16.19,0,0,1,.39-5.13A31.44,31.44,0,0,1,42,13.16a1.42,1.42,0,0,0,1.47,1.07,1.51,1.51,0,0,0,1.62-1.09c.55-1.33,1.18-2.64,1.77-4l.29,0c.1,2,.21,4,.3,6,.06,1.42,1.2.8,1.88,1,.93.22.65-.59.64-1q-.12-4-.32-8.06c0-.6.26-1.58-.83-1.45s-2.51-1-3.21.81C45,8,44.36,9.57,43.7,11.16c-.18-.13-.31-.17-.34-.25-.47-1.09-.94-2.18-1.39-3.28-.92-2.27-.91-2.24-3.33-2.06-.74,0-1.12.23-1.15,1.06-.09,2.9-.23,5.79-.37,8.69C37.09,16,37.34,16.17,38,16.18Z"/><path class="cls-1" d="M75,21.27c-.52-.54-.77-1.55-1.9-.75-1.34.95-2.78,1.77-4.17,2.65-.13.11-.24.38-.43.19s0-.35.15-.48c.53-1.11,1-2.26,1.61-3.34.42-.75.2-1.19-.36-1.72s-1-.95-1.84-.46c-1.13.65-2.36,1.15-3.54,1.71l-.27-.3c1-1.47,2-2.94,2.92-4.43.79-1.21-.59-1.29-1-1.81s-.86,0-1.13.4c-1.45,2.26-2.91,4.52-4.33,6.8-.26.41-1,.95-.21,1.42S61.58,23,63,22.27s2.67-1.32,4-2l.33-.07-.12.32c-.66,1.33-1.28,2.69-2,4s.64,1.65,1.06,2.42,1,.27,1.44,0c2.28-1.42,4.54-2.86,6.81-4.28C75.07,22.31,75.65,22,75,21.27Z"/></g></g></svg>