<svg xmlns="http://www.w3.org/2000/svg" xmlns:xlink="http://www.w3.org/1999/xlink" viewBox="0 0 39.57 39.57"><defs><style>.cls-1{fill:url(#linear-gradient);}</style><linearGradient id="linear-gradient" y1="19.78" x2="39.57" y2="19.78" gradientUnits="userSpaceOnUse"><stop offset="0" stop-color="#fc6e2f"/><stop offset="1" stop-color="#fe5b3d"/></linearGradient></defs><title>facebook</title><g id="Layer_2" data-name="Layer 2"><g id="Layer_1-2" data-name="Layer 1"><path class="cls-1" d="M21.13,39.56H2.41A2.45,2.45,0,0,1,1,39.24a2.11,2.11,0,0,1-1-1.75c0-.13,0-.26,0-.39V2.45A2.4,2.4,0,0,1,.33,1,2.12,2.12,0,0,1,2.06,0h35a2.76,2.76,0,0,1,1.17.17,2.16,2.16,0,0,1,1.32,1.89c0,.13,0,.26,0,.39q0,17.34,0,34.68a2.41,2.41,0,0,1-.34,1.41,2.12,2.12,0,0,1-1.71,1H27.3c-.1-.05-.1-.15-.11-.24s0-.28,0-.42v-14a3.2,3.2,0,0,1,0-.44c0-.26.08-.31.34-.33h4.3c.44,0,.5-.05.56-.47.21-1.62.42-3.24.62-4.86,0-.29,0-.38-.39-.38-1.51,0-3,0-4.54,0h-.47c-.36,0-.42-.06-.43-.43,0-1.32,0-2.64,0-4a2.63,2.63,0,0,1,.58-1.74,2.65,2.65,0,0,1,1.83-.81c1.06-.1,2.12,0,3.19-.05.45,0,.51-.06.51-.51V6.8c0-.4-.09-.49-.5-.53a35.62,35.62,0,0,0-4.5-.15,7.53,7.53,0,0,0-4.17,1.33,6.68,6.68,0,0,0-2.56,3.85,9.93,9.93,0,0,0-.31,2.43c0,1.32,0,2.63,0,3.94,0,.14,0,.28,0,.42a.29.29,0,0,1-.31.31h-.41c-1.31,0-2.61,0-3.92,0-.42,0-.49.06-.49.48v4.74c0,.42.07.49.49.49h4.07c.54,0,.58,0,.58.57q0,7.2,0,14.39C21.25,39.25,21.31,39.44,21.13,39.56Z"/></g></g></svg>