<svg xmlns="http://www.w3.org/2000/svg" xmlns:xlink="http://www.w3.org/1999/xlink" viewBox="0 0 105.79 77.31"><defs><style>.cls-1{fill:url(#linear-gradient);}</style><linearGradient id="linear-gradient" y1="38.65" x2="105.79" y2="38.65" gradientUnits="userSpaceOnUse"><stop offset="0" stop-color="#fc6e2f"/><stop offset="1" stop-color="#fe5b3d"/></linearGradient></defs><title>footer-logo</title><g id="Layer_2" data-name="Layer 2"><g id="Layer_1-2" data-name="Layer 1"><path class="cls-1" d="M59.87,0A46,46,0,0,0,14,45.92q0,.84,0,1.68c-.33.71-.69,1.46-1.08,2.26a24.62,24.62,0,0,1-3.85,5.69v-6.7H1.47C.57,48.85,0,49.92,0,50.94v2.83c0,1,5.73,1.82,7.79,3.1a48.44,48.44,0,0,1-4.27,3.52,102.74,102.74,0,0,1,14.64-1c27.51,0,35.66,16.31,64.53,16.31a23.47,23.47,0,0,1,8.53,1.63v-12c0-2.6-2.39-4-5.37-6.35a34.82,34.82,0,0,1-2.64-2.32,17.52,17.52,0,0,1,2.54-.91c2.31-.69,4.85-1.27,4.85-2V50.94c0-1-.57-2.09-1.47-2.09H81.54v6a24.68,24.68,0,0,1-3.22-5c-4.93-10-4.76-13.42-24.62-13.42H37.53c-7,0-11.56.43-14.69,1.42A37.9,37.9,0,0,1,97.28,52.05a2,2,0,0,0,1.24,2.18l3.8,1.52a2.11,2.11,0,0,0,.74.14,2,2,0,0,0,1-.25,2,2,0,0,0,1-1.39,46.76,46.76,0,0,0,.76-8.33A46,46,0,0,0,59.87,0Zm14,71.43L85.39,66.9l1.89-.74v7H73.87Z"/></g></g></svg>