<svg xmlns="http://www.w3.org/2000/svg" viewBox="0 0 168 106.01"><defs><style>.cls-1{fill:#8b93a5;}</style></defs><title>Honda</title><g id="Layer_2" data-name="Layer 2"><g id="Layer_1-2" data-name="Layer 1"><path class="cls-1" d="M84,83.4c-8.8-.49-17.58-.9-26.35-1.5a29.93,29.93,0,0,1-12.36-3.41,14.67,14.67,0,0,1-6.84-7.39,60,60,0,0,1-3.85-15.72,179.65,179.65,0,0,1-1.52-26.73A78.36,78.36,0,0,1,34,17.51c1.39-8.4,5.89-13,14.59-14.76a140.25,140.25,0,0,1,15.71-2A254.66,254.66,0,0,1,95.81.27c7.87.32,15.74.78,23.47,2.43a28.79,28.79,0,0,1,6.09,2.07c4.69,2.19,7.26,6.2,8.27,11.1a61.16,61.16,0,0,1,1.24,10.88,158.81,158.81,0,0,1-2.56,35,74.46,74.46,0,0,1-2.81,9.43c-1.17,3.39-3.65,5.66-6.74,7.34a30,30,0,0,1-12.35,3.42C101.62,82.5,92.8,82.91,84,83.4ZM84,4.58v.31c-3.61,0-7.22-.08-10.82,0-3.35.1-6.7.37-10,.62-1.35.1-1.5.31-1.2,1.43,2.16,8.39,4.22,16.81,6.56,25.14a75.69,75.69,0,0,0,4.2,11.28,8.77,8.77,0,0,0,8.36,5.2c2,0,4.08,0,6.12,0A9,9,0,0,0,95,44a17.23,17.23,0,0,0,1.93-4c1.82-5.9,3.58-11.82,5.23-17.77,1.38-5,2.59-10,3.87-15.07.32-1.28.24-1.42-1-1.58-.94-.12-1.88-.25-2.83-.29Q93.12,4.9,84,4.58ZM39.35,32.8A196.69,196.69,0,0,0,42,62c.51,3,1.23,6.07,3.11,8.59,2.54,3.42,6.21,5.08,10.24,6,2,.46,2.63-.16,2.37-2.24-.35-2.9-.73-5.8-1-8.72-.58-6-1.17-11.94-1.64-17.92-.68-8.42-1.34-16.85-1.84-25.29-.28-4.74-.24-9.51-.34-14.26,0-1.08-.37-1.37-1.44-1.08-.84.23-1.66.53-2.5.78A11.26,11.26,0,0,0,41,15.93a15.74,15.74,0,0,0-.76,3.19C39.88,23.68,39.64,28.24,39.35,32.8Zm76.1-24.14-.2-.15a3.06,3.06,0,0,0,0,.32c0,12.56-.85,25.07-2.08,37.57q-1.38,14-2.8,28.05c-.2,2,.35,2.48,2.28,2.18a20.46,20.46,0,0,0,7-2.95,10,10,0,0,0,4.89-6.33c.85-3.32,1.66-6.67,2.2-10a171.4,171.4,0,0,0,1.49-35.14A21.94,21.94,0,0,0,126,13.49c-2-4.15-5.66-5.5-9.69-5.93ZM98.88,77.58a1.76,1.76,0,0,0,0-.47c-1.41-4.42-2.71-8.87-4.31-13.22a5.86,5.86,0,0,0-5.12-4,79.22,79.22,0,0,0-9.37-.3c-3.87.13-6.31,2.33-7.47,6s-2.29,7.32-3.42,11a5.47,5.47,0,0,0-.12,1Z"/><path class="cls-1" d="M7.61,86.82c2.15,0,4.3,0,6.45,0,.68,0,1,.17,1,.92s-.07,1.25-1,1.2A5,5,0,0,0,13,89c-1.38.23-1.73.64-1.74,2,0,.8,0,1.61,0,2.41s.19,1.11,1,1.1c3.35,0,6.71,0,10.06,0,.88,0,1.18-.33,1.11-1.17-.05-.54,0-1.09,0-1.64,0-2.2-.35-2.66-2.54-2.79-1-.06-1.39-.5-1.19-1.43a1.07,1.07,0,0,1,.71-.68c4.45,0,8.9,0,13.35,0,.61,0,.75.32.7.83s.24,1.17-.63,1.26c-.66.07-1.3.16-2,.22a1.15,1.15,0,0,0-1.15,1.31c0,3.66,0,7.32,0,11,0,.91.36,1.47,1.32,1.54.43,0,.86.15,1.3.17.83,0,1.23.33,1.2,1.26s-.64.9-1.26.9c-4.16,0-8.32,0-12.47,0-.61,0-1.15,0-1.17-.88s.23-1.24,1.06-1.27l.33,0c2.19-.24,2.39-.46,2.39-2.63,0-2.68,0-2.68-2.65-2.68-2.8,0-5.61,0-8.42,0-.82,0-1.21.23-1.13,1.13a14.72,14.72,0,0,1,0,2.3A1.48,1.48,0,0,0,12.71,103c.4,0,.79.12,1.19.14.85,0,1.21.4,1.16,1.31s-.62.83-1.2.83H1.17c-.61,0-1.15,0-1.17-.87s.26-1.14,1.08-1.25C4,102.8,4,102.78,4,99.83V91.92c0-2.65-.2-2.9-2.81-3-1,0-1.16-.42-1.13-1.27s.3-.87.92-.87C3.16,86.83,5.38,86.82,7.61,86.82Z"/><path class="cls-1" d="M92.45,100.9c.17-.2.25-.25.25-.31,0-3.28,0-6.57-.09-9.86,0-1.17-.88-1.76-2.36-1.77-1.09,0-1.39-.49-1.18-1.4.07-.3.5-.74.78-.74,3.32-.06,6.64,0,10,0,.6,0,.85.25.83.86s.09,1.15-.71,1.24l-.43,0c-1.89.23-2.59.93-2.62,2.84,0,2.67,0,5.35,0,8,0,1.61,0,3.22,0,4.83,0,.69-.2,1-.93,1-2.85,0-5.69,0-8.54,0a2.19,2.19,0,0,1-1.38-.83c-3.14-4-6.23-8.13-9.33-12.2-.24-.31-.5-.61-1-1.17-.06.61-.11.94-.12,1.26,0,2.57,0,5.13,0,7.69,0,2.09.47,2.67,2.54,3,.78.11,1.06.35,1,1.15s-.3,1-1,1c-3.1,0-6.2,0-9.3,0-.61,0-1.09,0-1.05-.86,0-.63-.07-1.27.9-1.25a2.4,2.4,0,0,0,1.37-.27c.51-.37,1.21-.94,1.24-1.45.15-3.33.22-6.66.16-10,0-1.49-1-2.3-2.74-2.65-.66-.13-1.14-.26-1.11-1.14s.29-1,1-1c4,0,8,0,11.93,0a2.27,2.27,0,0,1,1.51.82c3.18,4.05,6.31,8.15,9.47,12.23C91.84,100.19,92.12,100.52,92.45,100.9Z"/><path class="cls-1" d="M113.48,105.38c-3.32,0-6.64,0-10,0-.67,0-1.11-.07-1.08-.93,0-.7.06-1.12,1-1.16,2.35-.11,2.74-.58,2.74-3V91.78c0-2.31-.3-2.69-2.6-2.8-1,0-1.14-.43-1.11-1.28,0-.69.29-.86.92-.86,6.27,0,12.55-.1,18.82.11a19.92,19.92,0,0,1,6.54,1.52,7.5,7.5,0,0,1,4.87,7.08,8.17,8.17,0,0,1-4,7.7,12.61,12.61,0,0,1-6.42,1.92c-3.24.08-6.49,0-9.73,0Zm-.61-9.27c0,1.72,0,3.44,0,5.16,0,.62.21,1,.89.94,2,0,4.08.08,6.12,0,3.09-.18,4.76-1.65,5.08-4.42a12,12,0,0,0-.1-3.27,4.77,4.77,0,0,0-4.9-4.24c-2-.06-4.09,0-6.13,0-.7,0-1,.25-1,1C112.89,92.82,112.87,94.47,112.87,96.11Z"/><path class="cls-1" d="M52.19,106a29.47,29.47,0,0,1-9.62-1.06c-4-1.33-6.92-5.1-6.87-9a9.39,9.39,0,0,1,5.95-8.23A25.64,25.64,0,0,1,52.52,86.3a30.62,30.62,0,0,1,6,.84,11.68,11.68,0,0,1,4.09,2,8.69,8.69,0,0,1-.42,14.36,14.85,14.85,0,0,1-7.09,2.34C54.16,105.93,53.18,105.94,52.19,106Zm-1.56-3.32c4.26,0,6.33-1.53,7.08-5.18.8-3.9-1.19-7-5-7.71a11.65,11.65,0,0,0-2.83-.17,5.94,5.94,0,0,0-5.72,4.45C42.77,98.93,45.62,102.7,50.63,102.68Z"/><path class="cls-1" d="M160,105.38c-2.3,0-4.6,0-6.89,0-.64,0-1.07-.08-1-.88s0-1.29.93-1.19a1.45,1.45,0,0,0,.54-.06c.84-.23,1.82-.35,1.75-1.56a2.3,2.3,0,0,0-2.14-2H143.13a2.13,2.13,0,0,0-2,1.93c-.08,1.07.76,1.26,1.54,1.53.5.18,1.26.31,1.42.68.47,1.07,0,1.59-1.18,1.59h-9.41c-.54,0-1.14.1-1.1-.78,0-.66-.11-1.28.92-1.33a4.5,4.5,0,0,0,3.74-2.49c1.62-2.74,3.3-5.44,4.95-8.15,1.37-2.26.76-3.47-1.89-3.67-.72,0-1.14-.12-1.13-1s.32-1.18,1.2-1.17q6.24,0,12.47,0a1.91,1.91,0,0,1,1.79,1c3.06,4.5,6.19,9,9.23,13.47a4,4,0,0,0,3.46,2.1c1,0,.79.7.84,1.29.05.75-.4.81-1,.8Zm-7.66-8.74L148,90l-4.24,6.64Z"/></g></g></svg>