<svg xmlns="http://www.w3.org/2000/svg" xmlns:xlink="http://www.w3.org/1999/xlink" viewBox="0 0 39.57 39.57"><defs><style>.cls-1{fill:url(#linear-gradient);}.cls-2{fill:url(#linear-gradient-2);}.cls-3{fill:url(#linear-gradient-3);}</style><linearGradient id="linear-gradient" y1="19.78" x2="39.57" y2="19.78" gradientUnits="userSpaceOnUse"><stop offset="0" stop-color="#fc6e2f"/><stop offset="1" stop-color="#fe5b3d"/></linearGradient><linearGradient id="linear-gradient-2" x1="9.2" y1="20.5" x2="30.37" y2="20.5" xlink:href="#linear-gradient"/><linearGradient id="linear-gradient-3" x1="28.29" y1="8.46" x2="33.92" y2="8.46" xlink:href="#linear-gradient"/></defs><title>instagram</title><g id="Layer_2" data-name="Layer 2"><g id="Layer_1-2" data-name="Layer 1"><path class="cls-1" d="M0,31.48V8.09a4.74,4.74,0,0,0,.15-.5A9.13,9.13,0,0,1,3.7,1.83,11.19,11.19,0,0,1,8.09,0H31.48a1.23,1.23,0,0,0,.31.14A9.06,9.06,0,0,1,37.5,3.42a10.46,10.46,0,0,1,2.07,4.85v23a4.74,4.74,0,0,0-.15.5A9,9,0,0,1,33.56,39a20.64,20.64,0,0,1-2.08.59H8.09a1.93,1.93,0,0,0-.4-.15A9.13,9.13,0,0,1,1.94,36,11.09,11.09,0,0,1,0,31.48ZM2.81,19.77c0,3.58,0,7.15,0,10.73A6.3,6.3,0,0,0,9.1,36.75H30.46a6.32,6.32,0,0,0,6.28-6.18q0-10.68,0-21.36a6.3,6.3,0,0,0-6.43-6.39q-10.54,0-21.09,0a6.3,6.3,0,0,0-6.4,6.4Q2.81,14.5,2.81,19.77Z"/><path class="cls-2" d="M9.2,20.42A10.59,10.59,0,1,1,19.84,31.09,10.6,10.6,0,0,1,9.2,20.42Zm10.61-7.74a7.81,7.81,0,1,0,7.78,8A7.86,7.86,0,0,0,19.81,12.68Z"/><path class="cls-3" d="M31.06,11.27a2.77,2.77,0,0,1-2.77-2.78,2.82,2.82,0,0,1,2.83-2.84,2.9,2.9,0,0,1,2.8,2.81A2.82,2.82,0,0,1,31.06,11.27Z"/></g></g></svg>