<svg xmlns="http://www.w3.org/2000/svg" xmlns:xlink="http://www.w3.org/1999/xlink" viewBox="0 0 24 21.33"><defs><style>.cls-1{fill:url(#linear-gradient);}.cls-2{fill:url(#linear-gradient-2);}.cls-3{fill:url(#linear-gradient-3);}</style><linearGradient id="linear-gradient" y1="10.66" x2="18.68" y2="10.66" gradientUnits="userSpaceOnUse"><stop offset="0" stop-color="#fc6e2f"/><stop offset="1" stop-color="#fe5b3d"/></linearGradient><linearGradient id="linear-gradient-2" x1="12.06" y1="15.35" x2="24" y2="15.35" xlink:href="#linear-gradient"/><linearGradient id="linear-gradient-3" x1="14.75" y1="15.31" x2="21.32" y2="15.31" xlink:href="#linear-gradient"/></defs><title>kthimi</title><g id="Layer_2" data-name="Layer 2"><g id="Layer_1-2" data-name="Layer 1"><path class="cls-1" d="M18.61,8H1.29c0,.26,0,.48,0,.7v9.76c0,1.17.46,1.62,1.61,1.62h8.76a1.14,1.14,0,0,1,1.1.46,7.48,7.48,0,0,0,.89.82H2.9A2.66,2.66,0,0,1,0,18.46V5.63a2.71,2.71,0,0,1,2.87-3C4,2.61,4,2.61,4,1.49A8.72,8.72,0,0,1,4,.6.59.59,0,0,1,4.69,0a.58.58,0,0,1,.57.64c0,.52,0,1,0,1.56,0,.33.11.46.45.45H13c.32,0,.43-.11.42-.42,0-.5,0-1,0-1.51S13.57,0,14,0s.63.25.64.68,0,1,0,1.56c0,.31.12.42.43.41a8.24,8.24,0,0,1,1.22.07,2.56,2.56,0,0,1,2.33,2.44c.06.8,0,1.6,0,2.4A2.77,2.77,0,0,1,18.61,8ZM9.3,6.68h6.91c1.19,0,1.19,0,1.18-1.22,0-1-.46-1.5-1.48-1.5H2.76A1.32,1.32,0,0,0,1.25,5.45c0,.21,0,.41,0,.62-.06.5.16.62.64.62C4.36,6.67,6.83,6.68,9.3,6.68Z"/><path class="cls-2" d="M24,15.38a6,6,0,1,1-11.94-.09A6,6,0,1,1,24,15.38Zm-5.94,4.67a4.65,4.65,0,0,0,4.69-4.71A4.72,4.72,0,0,0,18,10.62a4.78,4.78,0,0,0-4.75,4.77A4.73,4.73,0,0,0,18.06,20.05Z"/><path class="cls-3" d="M18,15.94h-2.5c-.42,0-.75-.15-.74-.63s.35-.63.76-.63h5c.43,0,.8.14.8.65s-.36.6-.77.61Z"/></g></g></svg>