<svg xmlns="http://www.w3.org/2000/svg" xmlns:xlink="http://www.w3.org/1999/xlink" viewBox="0 0 24 21.33"><defs><style>.cls-1{fill:url(#linear-gradient);}.cls-2{fill:url(#linear-gradient-2);}.cls-3{fill:url(#linear-gradient-3);}</style><linearGradient id="linear-gradient" y1="10.66" x2="18.68" y2="10.66" gradientUnits="userSpaceOnUse"><stop offset="0" stop-color="#fc6e2f"/><stop offset="1" stop-color="#fe5b3d"/></linearGradient><linearGradient id="linear-gradient-2" x1="12.06" y1="15.35" x2="24" y2="15.35" xlink:href="#linear-gradient"/><linearGradient id="linear-gradient-3" x1="14.75" y1="15.31" x2="21.35" y2="15.31" xlink:href="#linear-gradient"/></defs><title>marrjes</title><g id="Layer_2" data-name="Layer 2"><g id="Layer_1-2" data-name="Layer 1"><path class="cls-1" d="M5.25,2.65h2c1.86,0,3.72,0,5.58,0,.51,0,.66-.15.61-.63s0-.9,0-1.34S13.57,0,14,0a.6.6,0,0,1,.67.65c0,.49.06,1,0,1.45s.15.59.58.56a4.62,4.62,0,0,1,1.05,0,2.61,2.61,0,0,1,2.36,2.65c0,.65,0,1.3,0,1.95S18.57,8,18,8C12.7,8,7.36,8,2,8c-.77,0-.77,0-.77.74v9.71c0,1.2.44,1.64,1.64,1.64,2.92,0,5.84,0,8.76,0a1.18,1.18,0,0,1,1.06.45,7.08,7.08,0,0,0,.91.84H2.87A2.66,2.66,0,0,1,0,18.48V5.6A2.71,2.71,0,0,1,2.9,2.65C4,2.62,4,2.62,4,1.51,4,1.2,4,.88,4,.57A.59.59,0,0,1,4.67,0a.55.55,0,0,1,.58.61Zm4.06,4h6.74c1.43,0,1.43,0,1.34-1.46A1.24,1.24,0,0,0,16.06,4H2.58A1.26,1.26,0,0,0,1.26,5.19c0,.27,0,.56,0,.83-.06.5.13.67.65.67C4.37,6.66,6.84,6.68,9.31,6.68Z"/><path class="cls-2" d="M24,15.41a6,6,0,1,1-5.91-6.05A5.93,5.93,0,0,1,24,15.41Zm-5.95,4.64a4.65,4.65,0,0,0,4.7-4.71A4.72,4.72,0,0,0,18,10.62a4.78,4.78,0,0,0-4.75,4.76A4.73,4.73,0,0,0,18.05,20.05Z"/><path class="cls-3" d="M21.35,15.49c-.16.11-.37.37-.61.41a10.93,10.93,0,0,1-1.62,0c-.33,0-.47.11-.46.46,0,.5,0,1,0,1.5s-.19.7-.63.7-.62-.28-.62-.7,0-1,0-1.45-.15-.52-.52-.51-1,0-1.51,0a.57.57,0,0,1-.62-.58.6.6,0,0,1,.61-.66c.53,0,1.07,0,1.61,0,.32,0,.43-.11.43-.42,0-.51,0-1,0-1.51S17.6,12,18,12s.64.32.64.75,0,.93,0,1.39.1.54.5.52a14,14,0,0,1,1.45,0C21,14.7,21.29,14.87,21.35,15.49Z"/></g></g></svg>