<svg xmlns="http://www.w3.org/2000/svg" viewBox="0 0 168 111.05"><defs><style>.cls-1{fill:#8b93a5;}</style></defs><title>Mercedes</title><g id="Layer_2" data-name="Layer 2"><g id="Layer_1-2" data-name="Layer 1"><path class="cls-1" d="M115.22,19.38a30.45,30.45,0,0,1,4.16,13.74c1.78,23.1-17.07,41.64-40.1,39.12-12.89-1.41-22.34-8.32-28.39-19.82.45.49.93,1,1.35,1.49,1.35,1.68,2.68,3.38,4,5.07-9.15-14.56-10.84-29.27-.14-43.53C64.77,3.93,76.92-.21,91,2.84c11.8,2.56,19.77,10,24.28,21.18q-2.35-3.89-4.73-7.77c-.28.33-.28.49-.2.61a37.57,37.57,0,0,1,5.76,17.53,29.66,29.66,0,0,1-2.95,15.41l.48-2a67.46,67.46,0,0,0,1.94-8A32.57,32.57,0,0,0,91.1,4.83c-2.26-.53-4.61-.72-7.11-1.1.25,1.6.44,2.79.63,4,1.3,7.91,2.62,15.82,3.88,23.75.09.53,0,1.41-.36,1.65-1.3.89-2.74,1.58-4.41,2.49,0-7.49,0-14.64,0-21.79,0-2.77,0-5.55,0-8.32,0-1-.29-1.66-1.61-1.63-18.27.47-33,17.25-31,35.35a40.74,40.74,0,0,0,3.14,11.44,4.7,4.7,0,0,1-.92-1.16,55.59,55.59,0,0,1-2.06-6.2c-.53-2.3-.72-4.68-1.06-7-.45,11.55,3.81,21,13.28,27.61C75,72,87.59,73.06,99.81,66,115.7,56.74,120.19,42.42,116,24.85l2.31,8.7a24.22,24.22,0,0,0-.5-5.25C117.08,25.3,116.1,22.35,115.22,19.38Z"/><path class="cls-1" d="M16.51,93.56c-2,5.42-4,10.84-6.21,16.79-2.19-5.94-4.22-11.41-6.24-16.89l-.34.07c-.17,4.93-.43,9.86-.42,14.78,0,.68,1.28,1.36,1.93,2H0c2.86-.59,2.18-2.88,2.27-4.76.16-3.28.3-6.57.4-9.86.06-1.89.91-4.24-2.67-4.36l.39-.52c1.63,0,3.26-.06,4.87.06.29,0,.61.75.78,1.2,1.62,4.36,3.21,8.73,5,13.52.88-2.32,1.62-4.26,2.35-6.2.93-2.48,1.89-5,2.76-7.45a1.41,1.41,0,0,1,1.75-1.14,36.84,36.84,0,0,0,3.79,0l0,.45a3.1,3.1,0,0,0-1,.39c-.51.49-1.33,1.08-1.33,1.63,0,5,.08,9.93.37,14.88,0,.77,1.28,1.48,1.91,2.16H14.85c3-.47,2.22-2.74,2.23-4.59,0-4,0-8.07,0-12.11Z"/><path class="cls-1" d="M113.12,91c.85-.06,1.39-.14,1.93-.14,2.19,0,4.39-.06,6.57,0,2.81.11,4.49,1.26,5.1,3.34.68,2.29,0,4-2.61,5.76,1.93.71,3.32,1.88,3.65,4,.47,2.94-1.19,5.83-4.17,6.18a86.65,86.65,0,0,1-10.07.09,1.43,1.43,0,0,1,0-.26c2-.24,2.34-1.47,2.28-3.26-.13-3.57,0-7.15,0-10.73C115.79,92.64,115.79,92.64,113.12,91Zm5.18,9.71c0,2.67,0,5.08,0,7.48,0,.44.51,1.19.85,1.23,1.75.21,3.65.5,5-1.1a5.4,5.4,0,0,0,.61-5.7c-.72-1.86-2.38-1.94-4-1.91C120,100.72,119.25,100.71,118.3,100.71Zm.07-1c2.1-.1,4.26.61,5.4-1.65A4.77,4.77,0,0,0,123.6,93c-1.33-1.85-3.37-1.12-5.23-1.19Z"/><path class="cls-1" d="M78.23,98.49a36.52,36.52,0,0,0-.08-5.21c-.11-.71-1-1.3-1.56-1.93l4-.74v2.26c0,4.61,0,9.23,0,13.84,0,1.55,0,2.94,2.08,3.21l-3.73.76-.57-1.84c-1.37,1.79-3.1,2.53-5.25,1.67a5.45,5.45,0,0,1-3.52-5.12,17.33,17.33,0,0,1,.89-6.2A4.38,4.38,0,0,1,78.23,98.49Zm-6.59,5.12a26.17,26.17,0,0,0,1.11,4.71,3.14,3.14,0,0,0,2.34,1.58,3.12,3.12,0,0,0,2.34-1.59A11.68,11.68,0,0,0,77.36,99a3.29,3.29,0,0,0-2.52-1.55,3.13,3.13,0,0,0-2.23,1.71A23,23,0,0,0,71.64,103.61Z"/><path class="cls-1" d="M147.82,110.4h-6c2.13-.4,2-1.94,2-3.53-.07-2.25-.07-4.51,0-6.76.05-1.49.06-2.81-2-3.08l3.81-.86.3,2.13c.39-.34.7-.63,1-.9a4.4,4.4,0,0,1,4.71-.72,3.8,3.8,0,0,1,2.46,3.66c.07,2.19.06,4.39,0,6.58,0,1.5-.23,3.06,1.87,3.47h-5.91c2.22-.55,1.7-2.33,1.7-3.84,0-2.08,0-4.16-.06-6.24a2.36,2.36,0,0,0-2.2-2.63c-1.6-.19-3.07.63-3.2,2.21a81.72,81.72,0,0,0-.11,9C146.25,109.37,147.19,109.82,147.82,110.4Z"/><path class="cls-1" d="M95.23,103.18h-9c.2,1.43.28,2.68.57,3.88a3.22,3.22,0,0,0,3.29,2.76,3.53,3.53,0,0,0,3.53-2.53,3,3,0,0,1,1.1-1.3c-.06,2.64-1.34,4.2-3.51,4.71a5.51,5.51,0,0,1-6.14-2.49,9.49,9.49,0,0,1,.18-9.59,4.93,4.93,0,0,1,5.23-2.32,4.53,4.53,0,0,1,4,3.51C94.88,100.83,95,101.91,95.23,103.18Zm-2.56-1.13c-.1-3.34-1.17-5.07-3-5s-3.19,2.15-3.06,5Z"/><path class="cls-1" d="M140.38,106.15c-.31,2.51-1.56,4-3.75,4.54a5.75,5.75,0,0,1-6.07-2.31c-1.65-2.53-1.56-7.42.18-9.89A5.16,5.16,0,0,1,136,96.31a4.53,4.53,0,0,1,3.91,3.44c.31,1,.44,2.12.68,3.36h-9.13a37.23,37.23,0,0,0,1.24,5.09c.53,1.37,1.9,1.74,3.34,1.59a3.52,3.52,0,0,0,3-2.52,7.92,7.92,0,0,1,.93-1.4Zm-2.32-4.1c-.16-3.51-1.28-5.21-3.19-5s-3,2.28-2.85,5Z"/><path class="cls-1" d="M33.61,103.18h-9c.18,1.38.24,2.62.52,3.81a3.22,3.22,0,0,0,3.24,2.82,3.53,3.53,0,0,0,3.64-2.61,2.7,2.7,0,0,1,1-1.23,4.2,4.2,0,0,1-3.23,4.65,5.52,5.52,0,0,1-6.34-2.36,9.38,9.38,0,0,1,.23-9.72A4.9,4.9,0,0,1,29,96.31a4.54,4.54,0,0,1,3.93,3.43C33.22,100.77,33.35,101.86,33.61,103.18ZM31,102c0-3.18-1.08-5-2.91-5s-3.15,2-3.17,5Z"/><path class="cls-1" d="M67.62,103.19h-9a39,39,0,0,0,.59,4,3.22,3.22,0,0,0,3.21,2.65A3.54,3.54,0,0,0,66,107.35,3.39,3.39,0,0,1,67.08,106a4.15,4.15,0,0,1-2.93,4.54,5.77,5.77,0,0,1-6.28-1.68c-2.17-2.69-2-8.28.26-10.86a5.14,5.14,0,0,1,8.72,1.62A29.08,29.08,0,0,1,67.62,103.19Zm-2.54-1.14c-.18-1.93-.14-3.82-1.94-4.69a3.07,3.07,0,0,0-2.66.32c-1.38,1-1.59,2.71-1.64,4.37Z"/><path class="cls-1" d="M105.9,96.77v3.69l-.33.09c-.21-.53-.4-1.07-.62-1.59a2.87,2.87,0,0,0-4.18-1.38,2.08,2.08,0,0,0-.12,3.75,35.09,35.09,0,0,0,3.28,1.55c2.54,1.17,3.4,2.57,2.84,4.65a4.51,4.51,0,0,1-5.1,3.19,20.18,20.18,0,0,1-3-.89l-1.1,1.22v-5l.3-.13c.23.5.48,1,.7,1.51.84,1.92,2.51,2.92,4.28,2.2a3.47,3.47,0,0,0,1.94-2.09c.14-.67-.62-1.76-1.28-2.3a13.64,13.64,0,0,0-2.94-1.45c-2.68-1.27-3.5-2.82-2.64-5s3.23-3,5.7-2.28A13.55,13.55,0,0,0,105.9,96.77Z"/><path class="cls-1" d="M160.13,109.65c4.73.25,4.73.25,7.6-3.24-.19,1.19-.33,2.4-.63,3.56-.06.25-.72.49-1.11.49-2.88,0-5.76,0-9,0l7.77-12.83c-3.26-.89-4.36-.44-7.06,2.65l.63-3.62H168Z"/><path class="cls-1" d="M34.46,96.87l3.73-.64.32,2.12c.47-.49.8-.91,1.2-1.26,1.67-1.45,4.29-1,4.64.94a2.18,2.18,0,0,1-.85,1.89c-.92.37-1.4-.26-1.4-1.33,0-1.46-1.07-1.27-1.75-.72A3.44,3.44,0,0,0,39.09,100a75.2,75.2,0,0,0-.23,8.62c0,.61,1.06,1.17,1.62,1.75h-6c2.12-.37,1.94-1.93,1.92-3.44,0-2.48,0-5,0-7.44C36.42,97.57,36.41,97.57,34.46,96.87Z"/><path class="cls-1" d="M54.29,106.16c-.17,2.36-1.24,3.87-3.14,4.45a5.21,5.21,0,0,1-5.57-1.83c-2.18-2.76-2.08-8,.22-10.67,1.78-2.08,4.23-2.39,7.06-.85L54,95.67v5l-.27.14c-.23-.5-.48-1-.68-1.5a3.05,3.05,0,0,0-3-2.24,3,3,0,0,0-2.77,2.25,13.12,13.12,0,0,0-.12,8.33A2.8,2.8,0,0,0,50,109.81a3,3,0,0,0,2.93-2.25c.25-.6.58-1.17.87-1.75Z"/><path class="cls-1" d="M97.46,3C95.31,2.45,93.19,1.78,91,1.29,81.65-.83,72.9.89,64.66,5.65c.3-.31.53-.73.89-.93A35.71,35.71,0,0,1,97.2,2.81C97.3,2.85,97.37,3,97.46,3Z"/><path class="cls-1" d="M49.79,22.93c-.6,2.43-1.32,4.84-1.76,7.3A35.3,35.3,0,0,0,50,49.49a4.14,4.14,0,0,1-.77-1,35.82,35.82,0,0,1,.29-25.17A1.4,1.4,0,0,1,49.79,22.93Z"/><path class="cls-1" d="M113.89,103.25c-2.09,0-3.63,0-5.16,0-.26,0-.51-.41-.76-.63.21-.21.42-.59.64-.6a37.75,37.75,0,0,1,4.12,0C113,102,113.27,102.56,113.89,103.25Z"/><path class="cls-1" d="M54.62,51.7a6.18,6.18,0,0,0,2.1-.27c8-4.38,16.07-8.82,24.1-13.24.6-.34,1.21-.65,2.13-1.15a47.25,47.25,0,0,1-.07,5.1c0,.42-.91.89-1.49,1.1q-12,4.35-24.08,8.64c-.64.23-1.28.49-2,.75l.52,1Z"/><path class="cls-1" d="M110.76,54.17l.18-1.28L94.49,46.71C91.3,45.51,88.1,44.38,85,43.1a2.25,2.25,0,0,1-1.12-1.55,39.39,39.39,0,0,1,0-4.4c.72.37,1.26.63,1.79.93Q97.75,45,109.93,51.9c.6.34,1.2,1,1.89.14C111.47,52.75,111.12,53.46,110.76,54.17Z"/><path class="cls-1" d="M68.47,65.22A32.71,32.71,0,0,0,95.26,66.5a2.53,2.53,0,0,1,.68-.07c-3.28,1.86-6.92,2.41-10.56,2.68a31.48,31.48,0,0,1-15.61-2.9A8.12,8.12,0,0,1,68.47,65.22Z"/><path class="cls-1" d="M79.6,34.84,57.66,50.21l-.2-.18a9.46,9.46,0,0,1,.68-.73c5.94-4.84,11.94-9.63,17.8-14.56C77.35,33.54,78.33,33.6,79.6,34.84Z"/><path class="cls-1" d="M83.13,6.84q-1.6,13.29-3.21,26.62c-1.5-.3-1.86-1-1.59-2.47,1.52-7.92,2.94-15.86,4.39-23.79,0-.16.1-.31.14-.47Z"/><path class="cls-1" d="M87.67,34.29c.62,0,1.47-.27,1.85,0,6.41,5.16,12.77,10.39,19,15.86L87.66,34.79Z"/><path class="cls-1" d="M82.35,35.35c-.21-.5-.61-1-.58-1.49.26-4.79.59-9.56,1.12-14.33V35.15Z"/><path class="cls-1" d="M84.58,35.93c.5,0,1.12-.19,1.48,0,3.74,2.42,7.44,4.91,11,7.68L84.55,36.45Z"/><path class="cls-1" d="M82.26,36.47l-5.75,3.27c1.82-1.29,3-3.64,5.5-3.84Z"/></g></g></svg>