<svg xmlns="http://www.w3.org/2000/svg" viewBox="0 0 15.72 17.54"><defs><style>.cls-1{fill:#fff;}</style></defs><title>motori</title><g id="Layer_2" data-name="Layer 2"><g id="Layer_1-2" data-name="Layer 1"><path class="cls-1" d="M15.71,5.81a.68.68,0,0,0-.16-.44c-.49-.52-1-1-1.51-1.51-.07-.07-.24,0-.36-.08,0,.13,0,.3.08.38.23.26.51.49.76.73-.72,1-.4,1.75.74,1.87v4.18c0,1.11,0,2.22,0,3.32a.64.64,0,0,1-.86.67.74.74,0,0,1-.43-.78c0-1.68,0-3.36,0-5A1.1,1.1,0,0,0,13,8l-.27,0V2.12c.27,0,.52,0,.78,0a.3.3,0,0,0,.34-.35V.55c0-.55,0-.55-.56-.55H.32A.29.29,0,0,0,0,.33V1.75c0,.25.12.37.38.37s.49,0,.74,0V16l-.2,0c-1,0-.92-.15-.92,1,0,.54,0,.56.56.56H13.5c.22,0,.33-.1.32-.33v-.87c0-.23-.1-.33-.33-.32h-.76V8.41c.57,0,.78.22.78.73,0,1.71,0,3.41,0,5.12a1.1,1.1,0,0,0,1.11,1.16,1.12,1.12,0,0,0,1.09-1.18Q15.72,10,15.71,5.81ZM.46,1.63V.47h12.9V1.63Zm11.75.51V16H11.09V2.14ZM10.58,5.49H3.22V2.14h7.36Zm0,.5V8.93H3.23V6ZM3.22,9.42h7.37V16H3.22Zm-.5-7.29V16H1.62V2.13ZM13.36,16.49v.57H.47v-.57ZM15.22,6.25A.44.44,0,0,1,14.61,6a.49.49,0,0,1,.22-.67A.74.74,0,0,1,15.22,6.25Z"/><path class="cls-1" d="M7.1,10.84c-.12-.21-.32-.12-.42.06-.37.67-.76,1.33-1.07,2A1.16,1.16,0,0,0,6,14.33a1.31,1.31,0,0,0,1.49.24,1.37,1.37,0,0,0,.85-1.23.85.85,0,0,0,0-.25C7.9,12.34,7.51,11.58,7.1,10.84Zm.37,3.24a.93.93,0,0,1-1.07,0,.85.85,0,0,1-.4-.95c.24-.61.55-1.18.83-1.77H7c.28.58.59,1.15.84,1.74A.87.87,0,0,1,7.47,14.08Z"/><path class="cls-1" d="M5.63,8.52c.85,0,1.7,0,2.55,0a.32.32,0,0,0,.35-.36c0-.47,0-.94,0-1.41,0-.26-.11-.36-.37-.36H5.65c-.22,0-.33.08-.33.31,0,.51,0,1,0,1.52C5.34,8.34,5.53,8.51,5.63,8.52ZM7.18,6.88h.88V8H7.18Zm-1.39,0h.88V8H5.79Z"/></g></g></svg>