<svg xmlns="http://www.w3.org/2000/svg" xmlns:xlink="http://www.w3.org/1999/xlink" viewBox="0 0 55 55.05"><defs><style>.cls-1{fill:url(#linear-gradient);}.cls-2{fill:url(#linear-gradient-2);}.cls-3{fill:url(#linear-gradient-3);}.cls-4{fill:url(#linear-gradient-4);}</style><linearGradient id="linear-gradient" y1="27.52" x2="55" y2="27.52" gradientUnits="userSpaceOnUse"><stop offset="0" stop-color="#fc6e2f"/><stop offset="1" stop-color="#fe5b3d"/></linearGradient><linearGradient id="linear-gradient-2" x1="14.64" y1="38.29" x2="40.34" y2="38.29" xlink:href="#linear-gradient"/><linearGradient id="linear-gradient-3" x1="13.16" y1="20.62" x2="24.75" y2="20.62" xlink:href="#linear-gradient"/><linearGradient id="linear-gradient-4" x1="30.2" y1="20.64" x2="41.98" y2="20.64" xlink:href="#linear-gradient"/></defs><title>sherbim-ikona4</title><g id="Layer_2" data-name="Layer 2"><g id="Layer_1-2" data-name="Layer 1"><path class="cls-1" d="M27.55,55.05A27.53,27.53,0,1,1,55,27.62,27.48,27.48,0,0,1,27.55,55.05Zm0-50a22.49,22.49,0,1,0,22.48,22.5A22.51,22.51,0,0,0,27.59,5.08Z"/><path class="cls-2" d="M27.44,43A16.93,16.93,0,0,1,15.88,38.3c-1.48-1.37-1.63-2.81-.49-4s2.55-1,3.92.33a11.71,11.71,0,0,0,16.35,0c1.4-1.32,2.88-1.48,3.9-.42s1,2.68-.42,4A17,17,0,0,1,27.44,43Z"/><path class="cls-3" d="M24.75,23.88l-.39.91a9.21,9.21,0,0,1-1.27-.71,8.78,8.78,0,0,1-.86-1c-2.25-2.28-4.85-2.16-7,.24a10.55,10.55,0,0,1-1.89,1.38,6.62,6.62,0,0,1-.09-2.53A14.33,14.33,0,0,1,15.58,18a4.31,4.31,0,0,1,6.58-.11A8.49,8.49,0,0,1,24.75,23.88Z"/><path class="cls-4" d="M30.2,23.74a8.73,8.73,0,0,1,3.14-6.22,4.38,4.38,0,0,1,5.88.22A8.28,8.28,0,0,1,42,23.26a4.66,4.66,0,0,1-.39,1.54,10.17,10.17,0,0,1-1.37-.86c-.55-.45-1-1.08-1.53-1.49a3.85,3.85,0,0,0-5.35.19c-.52.42-.89,1-1.41,1.43a6.29,6.29,0,0,1-1.26.66Z"/></g></g></svg>