<svg xmlns="http://www.w3.org/2000/svg" xmlns:xlink="http://www.w3.org/1999/xlink" viewBox="0 0 55 48.9"><defs><style>.cls-1{fill:url(#linear-gradient);}.cls-2{fill:url(#linear-gradient-2);}</style><linearGradient id="linear-gradient" y1="29.08" x2="55" y2="29.08" gradientUnits="userSpaceOnUse"><stop offset="0" stop-color="#fc6e2f"/><stop offset="1" stop-color="#fe5b3d"/></linearGradient><linearGradient id="linear-gradient-2" x1="16.15" y1="15.23" x2="38.89" y2="15.23" xlink:href="#linear-gradient"/></defs><title>sherbim-ikona2</title><g id="Layer_2" data-name="Layer 2"><g id="Layer_1-2" data-name="Layer 1"><path class="cls-1" d="M12.7,11.43c.29,1.34.6,2.54.75,3.75,0,.28-.38.79-.7.91-2.42.93-4.86,1.83-7.31,2.66a1.34,1.34,0,0,0-1.07,1.48c0,7.37,0,14.74,0,22.11a9,9,0,0,0,.14,1.15c1.22-.41,2.34-.77,3.43-1.18,2.64-1,5.26-2,7.91-2.9a1.38,1.38,0,0,0,1.06-1.6c0-5,0-10,0-15.27,1.2,1.75,2.18,3.32,3.3,4.77A5.23,5.23,0,0,1,21.38,31c-.09,2.33-.06,4.68,0,7a1.67,1.67,0,0,0,.66,1.29c3.76,1.45,7.56,2.81,11.55,4.26,0-.58.11-1,.11-1.46,0-4,0-8,0-12a4.31,4.31,0,0,1,.68-2.1,40.23,40.23,0,0,1,3.69-5V43.43a7.93,7.93,0,0,0,1-.2c3.52-1.28,7-2.55,10.54-3.89a1.6,1.6,0,0,0,.91-1.1c.05-7.63,0-15.25,0-22.88a4,4,0,0,0-.16-.7l-9.87,3.57c.51-1.68.93-3.19,1.45-4.66a1.55,1.55,0,0,1,.85-.8c2.94-1.13,5.89-2.25,8.86-3.29,2-.7,3.26.23,3.26,2.36V40.09c0,1.72-.37,2.23-2,2.83-5.28,1.93-10.54,3.88-15.84,5.72a4.22,4.22,0,0,1-2.58-.08c-4.7-1.63-9.38-3.34-14-5.07a3.75,3.75,0,0,0-2.83,0c-4.63,1.72-9.27,3.39-13.91,5.08C1.25,49.46,0,48.62,0,46V18.35c0-1.93.35-2.48,2.15-3.14C5.62,14,9.11,12.72,12.7,11.43Z"/><path class="cls-2" d="M38.89,12A17,17,0,0,1,36,19.44c-2.14,3.42-4.55,6.67-6.92,9.94-1,1.44-2.1,1.42-3.2,0a73.93,73.93,0,0,1-8.78-13.57c-2.79-5.78.48-13.68,7.73-15.49C31.92-1.43,38.86,4,38.89,12ZM27.52,14.51a3.91,3.91,0,0,0,3.95-3.86,4,4,0,0,0-4-4,4,4,0,0,0-3.86,3.84A3.84,3.84,0,0,0,27.52,14.51Z"/></g></g></svg>