<svg xmlns="http://www.w3.org/2000/svg" xmlns:xlink="http://www.w3.org/1999/xlink" viewBox="0 0 55 67.74"><defs><style>.cls-1{fill:url(#linear-gradient);}.cls-2{fill:url(#linear-gradient-2);}</style><linearGradient id="linear-gradient" y1="33.87" x2="55" y2="33.87" gradientUnits="userSpaceOnUse"><stop offset="0" stop-color="#fc6e2f"/><stop offset="1" stop-color="#fe5b3d"/></linearGradient><linearGradient id="linear-gradient-2" x1="24.38" y1="35.5" x2="30.5" y2="35.5" xlink:href="#linear-gradient"/></defs><title>sherbim-ikona</title><g id="Layer_2" data-name="Layer 2"><g id="Layer_1-2" data-name="Layer 1"><path class="cls-1" d="M46.27,19.76c1-1.11,2-2.42,3.14-3.58,1.52-1.53,3.24-1.58,4.52-.29s1.16,2.81-.23,4.38c-1.16,1.32-3.1,2.52-3.31,4s1.44,3.06,2.1,4.67c4.18,10.22,3.27,20-3.7,28.59S32.37,69.31,21.45,67a27.39,27.39,0,0,1,.71-53.63c1.66-.31,2.51-.87,2.25-2.71-.18-1.33.35-3-.3-3.94-.49-.68-2.36-.37-3.62-.5C18.17,6,17,4.89,17.05,3s1.36-3,3.63-3Q27.4,0,34.12,0c.64,0,1.49,0,1.87.34A6.52,6.52,0,0,1,37.8,3.1a2.32,2.32,0,0,1-1.71,2.75,9,9,0,0,1-2.6.4c-3.07.11-3-.64-3,2.91s0,3.46,3.35,4.43A37.24,37.24,0,0,1,40.13,16C42.12,16.94,43.93,18.28,46.27,19.76ZM27.5,19A21.1,21.1,0,0,0,6.13,40.29a21,21,0,0,0,21.21,21.3A21.32,21.32,0,1,0,27.5,19Z"/><path class="cls-2" d="M30.47,35.5c0,2.3.08,4.6,0,6.89a3,3,0,0,1-3,3.08,3,3,0,0,1-3-3.07q-.15-6.9,0-13.79a3,3,0,1,1,6,0C30.55,30.91,30.47,33.21,30.47,35.5Z"/></g></g></svg>