<svg xmlns="http://www.w3.org/2000/svg" xmlns:xlink="http://www.w3.org/1999/xlink" viewBox="0 0 55 44.04"><defs><style>.cls-1{fill:url(#linear-gradient);}.cls-2{fill:url(#linear-gradient-2);}.cls-3{fill:url(#linear-gradient-3);}.cls-4{fill:url(#linear-gradient-4);}.cls-5{fill:url(#linear-gradient-5);}</style><linearGradient id="linear-gradient" x1="19.33" y1="28.93" x2="55" y2="28.93" gradientUnits="userSpaceOnUse"><stop offset="0" stop-color="#fc6e2f"/><stop offset="1" stop-color="#fe5b3d"/></linearGradient><linearGradient id="linear-gradient-2" x1="0" y1="15.11" x2="31.94" y2="15.11" xlink:href="#linear-gradient"/><linearGradient id="linear-gradient-3" x1="7.57" y1="17.22" x2="11.47" y2="17.22" xlink:href="#linear-gradient"/><linearGradient id="linear-gradient-4" x1="43.48" y1="31.06" x2="47.37" y2="31.06" xlink:href="#linear-gradient"/><linearGradient id="linear-gradient-5" x1="26.9" y1="31.06" x2="30.81" y2="31.06" xlink:href="#linear-gradient"/></defs><title>sherbim-ikona3</title><g id="Layer_2" data-name="Layer 2"><g id="Layer_1-2" data-name="Layer 1"><path class="cls-1" d="M51,38.57H49.64c-8.36,0-16.71,0-25.06,0-1.13,0-1.5.34-1.38,1.43a11.78,11.78,0,0,1,0,2.3,1.94,1.94,0,0,1-3.86,0c0-4.1,0-8.19.21-12.28A7,7,0,0,1,22,25.58a5.37,5.37,0,0,0,1.19-1.76c.74-1.85,1.37-3.73,2.06-5.6a6,6,0,0,1,6.17-4.38h11.5A5.86,5.86,0,0,1,49,18.15c.46,1.26,1,2.51,1.41,3.77a10.6,10.6,0,0,0,2.69,4.56C54.6,27.92,55,30,55,32.08c0,3.1,0,6.21,0,9.31a5.59,5.59,0,0,1-.1,1.15A1.77,1.77,0,0,1,53.09,44a1.71,1.71,0,0,1-1.9-1.34A16.25,16.25,0,0,1,51,40.06C51,39.61,51,39.16,51,38.57Zm-14-4H48.19c3,0,3,0,2.81-3.07a4,4,0,0,0-3.92-3.92q-9.93-.09-19.87,0a3.65,3.65,0,0,0-3.62,2.69,9.76,9.76,0,0,0-.36,2.59c-.05,1.71,0,1.71,1.64,1.71ZM46.71,23.4A38.52,38.52,0,0,0,45,19a2.47,2.47,0,0,0-1.83-1.09c-4.05-.1-8.11-.09-12.17,0a2.25,2.25,0,0,0-1.69.92,46.55,46.55,0,0,0-1.78,4.58Z"/><path class="cls-2" d="M31.94,10.56c-1.62.39-3.14.72-4.63,1.13a2.81,2.81,0,0,0-1.29.73c-1.05,1.14-2.35,1.19-3.77,1.17-4.36-.05-8.73,0-13.1,0S3.51,16.19,3.91,20c.08.82.72.66,1.22.66H21c-.06,2.5-1.51,3.94-3.86,3.94-3.95,0-7.9,0-11.85,0-1.13,0-1.5.37-1.4,1.45a14.72,14.72,0,0,1,0,2.3A1.84,1.84,0,0,1,2,30.22,1.83,1.83,0,0,1,0,28.49c0-4,0-8.11.19-12.16A7,7,0,0,1,2.67,11.8a5,5,0,0,0,1.12-1.67c.76-1.92,1.44-3.87,2.14-5.82A6,6,0,0,1,11.83,0q6-.06,12,0a5.81,5.81,0,0,1,5.73,4C30.35,6.22,31.16,8.44,31.94,10.56Zm-4.55-.91c-.56-1.57-1-2.94-1.55-4.29a2,2,0,0,0-2-1.28c-4,0-8,0-12,0A2.38,2.38,0,0,0,10,5.05a43.31,43.31,0,0,0-1.79,4.6Z"/><path class="cls-3" d="M9.48,15.22a2,2,0,0,1,.08,4,2,2,0,0,1-2-1.95A2,2,0,0,1,9.48,15.22Z"/><path class="cls-4" d="M47.37,31.12a2,2,0,0,1-2,1.91A2,2,0,0,1,43.48,31a1.95,1.95,0,1,1,3.89.16Z"/><path class="cls-5" d="M30.81,31.06a2,2,0,1,1-3.91,0,2,2,0,0,1,3.91,0Z"/></g></g></svg>