<svg xmlns="http://www.w3.org/2000/svg" viewBox="0 0 11.44 18.15"><defs><style>.cls-1{fill:#fff;}</style></defs><title>shpejtesi</title><g id="Layer_2" data-name="Layer 2"><g id="Layer_1-2" data-name="Layer 1"><path class="cls-1" d="M4.85,8.25a1.63,1.63,0,0,1-.69-.13A1,1,0,0,1,3.72,7a1.13,1.13,0,0,0,0-.32A1.51,1.51,0,0,0,3,5.81H3A3.19,3.19,0,0,1,1.5,2.17,2.57,2.57,0,0,1,4.15,0H6.94C8.54,0,9.4.55,9.83,1.83A3.15,3.15,0,0,1,8.71,5.62c-.83.53-1.12,1-1,1.76A.73.73,0,0,1,7.5,8a.86.86,0,0,1-.67.22H5.66a2.42,2.42,0,0,0-.38,0A3.11,3.11,0,0,1,4.85,8.25ZM3.43,5.09A2.43,2.43,0,0,1,4.54,6.46a1.59,1.59,0,0,1,0,.65,1.4,1.4,0,0,0,0,.28,3,3,0,0,0,.66,0,3.55,3.55,0,0,1,.46,0H6.82A2.61,2.61,0,0,1,8.25,4.9,2.29,2.29,0,0,0,9,2.1C8.76,1.31,8.33.86,6.94.86H4.18A1.72,1.72,0,0,0,2.33,2.37a2.35,2.35,0,0,0,1.1,2.72Zm4-2.61H4c-.67,0-.79-.42-.81-.6a.67.67,0,0,1,.16-.53A.86.86,0,0,1,4,1.11H7.45a.72.72,0,0,1,.79.69.68.68,0,0,1-.19.47A.82.82,0,0,1,7.46,2.48Z"/><path class="cls-1" d="M1.11,18.15a1.14,1.14,0,0,1-.91-.3A1.08,1.08,0,0,1,0,17a2.73,2.73,0,0,0,0-.81,1.54,1.54,0,0,1,.32-1.35,1.23,1.23,0,0,1,1.07-.21.89.89,0,0,1,.23-.8.7.7,0,0,1,.64-.12.66.66,0,0,0,.46,0c.07,0,.15-.19.19-.57l0-.35.35,0a28.22,28.22,0,0,1,4.78,0l.33,0,.05.33c0,.13.09.53.23.63a.6.6,0,0,0,.4,0,.74.74,0,0,1,.7.14.69.69,0,0,1,.19.65.49.49,0,0,0,0,.2,1.07,1.07,0,0,1,.36-.06,1,1,0,0,1,.76.19,1,1,0,0,1,.29.78H11l.42,0c.05,1.15.07,1.73-.3,2.12s-.94.38-2.07.38H1.11ZM.89,17.3H9a3.68,3.68,0,0,0,1.46-.12,3.92,3.92,0,0,0,.06-1.49v0a.51.51,0,0,0,0-.16h-.1a1.28,1.28,0,0,1-1.09-.24.93.93,0,0,1-.21-.68,1.19,1.19,0,0,1-.89-.14,1.36,1.36,0,0,1-.54-.87,26.57,26.57,0,0,0-4,0,1.3,1.3,0,0,1-.48.82,1.28,1.28,0,0,1-1,.19h0a1,1,0,0,1-.26.76.72.72,0,0,1-.66.14c-.35-.07-.43,0-.43,0s-.09.11,0,.62a4.42,4.42,0,0,1,0,1,.38.38,0,0,0,0,.18Z"/><path class="cls-1" d="M6.07,13H5.71c-1.5-.08-1.61-.32-1.6-1.81v-.67c0-.53,0-1.05,0-1.58a1,1,0,0,1,.21-.73,1,1,0,0,1,.78-.27c1,0,1.54,0,1.88.29S7.32,9,7.32,10v.42c0,.12,0,.24,0,.36a3.45,3.45,0,0,0,0,.65,1.36,1.36,0,0,1-.2,1.17A1.37,1.37,0,0,1,6.07,13ZM4.94,8.74a.25.25,0,0,1,0,.1c0,.54,0,1.08,0,1.63v.66A3.73,3.73,0,0,0,5,12a4.68,4.68,0,0,0,.74.07h.13c.49,0,.58-.05.6-.07s.07-.08,0-.45a3.4,3.4,0,0,1,0-.84c0-.1,0-.21,0-.32V10a3.68,3.68,0,0,0-.09-1.21,3.77,3.77,0,0,0-1.22-.06Z"/></g></g></svg>