<svg xmlns="http://www.w3.org/2000/svg" xmlns:xlink="http://www.w3.org/1999/xlink" viewBox="0 0 239.11 191.3"><defs><style>.cls-1{fill:url(#linear-gradient);}.cls-2{fill:url(#linear-gradient-2);}.cls-3{fill:url(#linear-gradient-3);}.cls-4{fill:url(#linear-gradient-4);}.cls-5{fill:url(#linear-gradient-5);}</style><linearGradient id="linear-gradient" y1="71.65" x2="155.1" y2="71.65" gradientUnits="userSpaceOnUse"><stop offset="0" stop-color="#fc6e2f"/><stop offset="1" stop-color="#fe5b3d"/></linearGradient><linearGradient id="linear-gradient-2" x1="98.02" y1="125.68" x2="239.11" y2="125.68" xlink:href="#linear-gradient"/><linearGradient id="linear-gradient-3" x1="144.01" y1="129.61" x2="200.84" y2="129.61" xlink:href="#linear-gradient"/><linearGradient id="linear-gradient-4" x1="54.08" y1="53.51" x2="101.09" y2="53.51" xlink:href="#linear-gradient"/><linearGradient id="linear-gradient-5" x1="70.74" y1="91.09" x2="84.67" y2="91.09" xlink:href="#linear-gradient"/></defs><title>support_2</title><g id="Layer_2" data-name="Layer 2"><g id="Layer_1-2" data-name="Layer 1"><path class="cls-1" d="M155.1,66.6c-.47,20.52-10.31,37-27.58,49-20,14-42.2,18-66,14-3.73-.63-6.93-.47-10.4,1.52a90.5,90.5,0,0,1-39.26,12c-4.45.3-8.45-.5-10.75-4.67s-.51-7.47,2.09-10.95c4.26-5.72,8.2-11.71,11.92-17.8.76-1.25.67-4.1-.24-5.14C-8.62,77.93-4.3,37.92,28.06,15,61.12-8.41,111-4,138.92,25.41,149.59,36.67,154.89,50.13,155.1,66.6ZM15.76,131.26c2.49-.25,4.57,0,6.29-.7,9.19-3.72,18.43-7.4,27.36-11.71,3-1.46,5.33-2.19,8.77-1.38,20.61,4.81,40.47,2.68,58.8-8.29,34.72-20.77,35.93-64,2.59-85.86C94.43,6.82,57.61,7.43,33.26,25,19.79,34.68,12,47.85,11.26,64.6c-.58,13,4.61,24,13.24,33.46,7.37,8.1,7,4.56,2,14.55C23.5,118.69,19.74,124.41,15.76,131.26Z"/><path class="cls-2" d="M223.19,178.44c-2.64-4.15-5.07-8.44-8-12.39-2.07-2.82-1.68-4.83.4-7.4,9-11.06,13.53-23.58,11.94-38-2.45-22.38-19.59-41.47-42.48-47-5.44-1.31-11.05-2-16.84-2.94V60.06a69,69,0,0,1,27.7,5.31C221.39,76.25,237.22,94.64,239,123.2c.82,13.25-2.91,25.4-10.37,36.3-1.72,2.51-1.92,4.3-.07,6.62,2.82,3.5,6,6.85,8,10.79,1.41,2.79,2.45,7.16,1.21,9.54s-5.71,4.71-8.49,4.42c-9-.93-17.92-3.16-26.91-4.68-2.42-.41-5.25-.75-7.43.08-34.67,13.22-74.34-.37-91.4-31.62-2.14-3.91-3.64-8.17-5.56-12.55l10.93-3c1.39,3.2,2.45,6.31,4,9.15,10.7,19.32,27.47,29.36,49.17,31.35a65.19,65.19,0,0,0,32.19-5.29c2.5-1.08,6-.61,8.85.06,6.48,1.56,12.82,3.68,19.22,5.57Z"/><path class="cls-3" d="M200.84,113.1c-1.4,2.19-2.17,4-3.47,5.37Q183,133.11,168.53,147.58c-3.71,3.7-6.06,3.69-9.78.08-4.07-3.94-8-8-12-12-2.63-2.64-4-5.64-1-8.73,3.2-3.34,6.31-1.8,9.12.89.48.46.94.94,1.42,1.41,7.35,7.27,7.38,7.3,14.91-.14,6.17-6.08,12.1-12.41,18.51-18.23,1.67-1.52,4.74-2.11,7.12-2C198.07,108.94,199.26,111.37,200.84,113.1Z"/><path class="cls-4" d="M77.13,41.44c-1.83,0-3.67.09-5.49,0-3.51-.22-5.75,1-6.37,4.74-.65,3.89-2.91,6-7,5.2s-4.39-4-4.11-7.31c.53-6.49,5.51-12.77,12.11-13.41a99.21,99.21,0,0,1,21.79.17c6.38.81,10.53,5.41,12.3,11.72a16.5,16.5,0,0,1-4.08,16.63A24.74,24.74,0,0,1,89,64.31c-3.68,1.73-6.35,3.44-6.37,8.27,0,1.57-3.49,4.41-5.26,4.32s-4.72-2.82-5.08-4.78c-1.82-9.77-.74-11.46,8-16.12,2.2-1.18,4.86-2,6.44-3.7s3.17-4.76,2.65-6.63-3.55-3.31-5.79-4.09C81.65,40.9,79.3,41.44,77.13,41.44Z"/><path class="cls-5" d="M77.44,98.2a7.21,7.21,0,0,1-6.7-7.29c0-4.2,2.65-6.92,6.77-6.94a7.2,7.2,0,0,1,7.15,7.35A7.36,7.36,0,0,1,77.44,98.2Z"/></g></g></svg>