<svg xmlns="http://www.w3.org/2000/svg" xmlns:xlink="http://www.w3.org/1999/xlink" viewBox="0 0 24 21.03"><defs><style>.cls-1{fill:url(#linear-gradient);}.cls-2{fill:url(#linear-gradient-2);}.cls-3{fill:url(#linear-gradient-3);}</style><linearGradient id="linear-gradient" y1="10.52" x2="24" y2="10.52" gradientUnits="userSpaceOnUse"><stop offset="0" stop-color="#fc6e2f"/><stop offset="1" stop-color="#fe5b3d"/></linearGradient><linearGradient id="linear-gradient-2" x1="3.78" y1="12.42" x2="5.9" y2="12.42" xlink:href="#linear-gradient"/><linearGradient id="linear-gradient-3" x1="18.1" y1="12.42" x2="20.22" y2="12.42" xlink:href="#linear-gradient"/></defs><title>tipi</title><g id="Layer_2" data-name="Layer 2"><g id="Layer_1-2" data-name="Layer 1"><path class="cls-1" d="M1.39,18.11c0,.76,0,1.5,0,2.25A.64.64,0,0,1,.72,21,.67.67,0,0,1,0,20.38a4.21,4.21,0,0,1,0-.5c0-2.24,0-4.48,0-6.71a13.57,13.57,0,0,1,.12-2.12A4.15,4.15,0,0,1,1.87,8.39a1.56,1.56,0,0,0,.52-.72c.5-1.55,1-3.11,1.43-4.67A3.67,3.67,0,0,1,7.54,0c3-.06,5.93,0,8.9,0A3.71,3.71,0,0,1,20.2,3q.69,2.34,1.42,4.67a1.48,1.48,0,0,0,.49.67A4.28,4.28,0,0,1,24,12c0,2.72,0,5.44,0,8.16,0,.49-.12.91-.69.92s-.73-.39-.72-.9a14.78,14.78,0,0,0,0-1.63c0-.16-.28-.3-.43-.44s-.08,0-.13,0H2C1.8,18.06,1.66,18.09,1.39,18.11ZM12,16.63c3.28,0,6.56,0,9.84,0,.58,0,.76-.18.74-.75,0-1.26,0-2.51,0-3.77A3,3,0,0,0,19.45,9H4.52a3,3,0,0,0-3.11,3.08c0,1.26,0,2.51,0,3.76,0,.6.16.79.77.79C5.45,16.61,8.74,16.63,12,16.63Zm8.07-9.09c-.5-1.62-.95-3.16-1.48-4.67a2,2,0,0,0-1.93-1.36c-3.11,0-6.22,0-9.34,0A2.09,2.09,0,0,0,5.34,3a9.24,9.24,0,0,0-.29.89c-.37,1.22-.74,2.43-1.12,3.7Z"/><path class="cls-2" d="M5.9,12.44a1,1,0,0,1-1.07,1.05,1.05,1.05,0,0,1-1.05-1.08,1.08,1.08,0,0,1,1.08-1.06A1,1,0,0,1,5.9,12.44Z"/><path class="cls-3" d="M20.22,12.41a1,1,0,0,1-1,1.07,1,1,0,0,1-1.07-1,1.06,1.06,0,0,1,1-1.09A1.08,1.08,0,0,1,20.22,12.41Z"/></g></g></svg>