<svg xmlns="http://www.w3.org/2000/svg" viewBox="0 0 13.38 18.91"><defs><style>.cls-1{fill:#fff;}</style></defs><title>ulese_1</title><g id="Layer_2" data-name="Layer 2"><g id="Layer_1-2" data-name="Layer 1"><path class="cls-1" d="M7.06,18.91l-.26,0h0a1.16,1.16,0,0,1-.76-.2L3.72,17.25l-1-.61a.66.66,0,0,1-.28-.27,2.59,2.59,0,0,1-1.39-2l-.15-.95L.85,13.1a.49.49,0,0,1-.08-.35.41.41,0,0,1,0-.08,5.27,5.27,0,0,1-.41-2l0-.34C.25,9,.13,7.68,0,6.33V6.24A1.43,1.43,0,0,1,.25,5.12a.46.46,0,0,1,.21-.36,2,2,0,0,1,1.35-.59l.38-.06a17.44,17.44,0,0,0,1.93-.25h.09a1.31,1.31,0,0,0,.39,0,1.78,1.78,0,0,1,.79,0A2,2,0,0,1,6.85,5.13c.36,1,.83,2.05,1.28,3l.3.66a5.12,5.12,0,0,1,.4,1.86,2.15,2.15,0,0,1-.5,1.49,1.55,1.55,0,0,0,.89.16,3.81,3.81,0,0,1,2.25.61c.28.17.56.34.85.5l.29.16a1.64,1.64,0,0,1,.76,1.71,1.56,1.56,0,0,1-.93,1.44L8.81,18.28l-1.2.51A1.49,1.49,0,0,1,7.06,18.91Zm-.29-.35,0,.25,0-.09Zm.05-.33H7a.57.57,0,0,0,.38-.06l1.21-.51,3.62-1.54a.87.87,0,0,0,.53-.88c0-.59-.07-.89-.43-1.09h0L12,14c-.3-.17-.6-.33-.89-.52A3,3,0,0,0,9.25,13a2.22,2.22,0,0,1-1.43-.36.37.37,0,0,1-.3-.17.33.33,0,0,1,0-.37,1.86,1.86,0,0,0,.64-1.38,4.39,4.39,0,0,0-.34-1.62l-.3-.65c-.46-1-.93-2-1.3-3.08a1.38,1.38,0,0,0-1-.86,1.14,1.14,0,0,0-.52,0,1.89,1.89,0,0,1-.48,0,16.48,16.48,0,0,1-1.92.25l-.38.06c-.46.07-.75.12-1,.4l0,0a.49.49,0,0,1-.1.23c-.16.16-.15.35-.12.69v.1C.79,7.62.9,9,1,10.3l0,.35a4.31,4.31,0,0,0,.43,1.9.39.39,0,0,1,0,.26l0,.07s0,0,0,0l.07.43.15,1a1.94,1.94,0,0,0,1.18,1.54.32.32,0,0,1,.18.23l1,.61,2.32,1.43a.56.56,0,0,0,.33.11Zm.95-5.66Zm-.83,5.66a.33.33,0,0,1-.33-.33A2.47,2.47,0,0,0,6.44,17l-.13-.14-.07-.11,0-.05a1.39,1.39,0,0,0-.15-.19A.37.37,0,0,1,6,16.34a.3.3,0,0,1-.19-.07l-.21-.15L5,15.66a.31.31,0,0,1-.13-.27.35.35,0,0,1,.06-.19.32.32,0,0,1,.46-.07l.62.45.25.18a.35.35,0,0,1,.12.21.33.33,0,0,1,.22.11,1.39,1.39,0,0,1,.21.27.21.21,0,0,1,0,.07h0l.17.19a.41.41,0,0,1,0,.09,2.89,2.89,0,0,1,.25,1.19h0a.33.33,0,0,1-.33.33ZM4.33,15.39a.28.28,0,0,1-.13,0L4,15.3H3.65A.34.34,0,0,1,3.31,15h0a.33.33,0,0,1,.33-.33h.49a2.25,2.25,0,0,1,.33.1.35.35,0,0,1,.2.31.35.35,0,0,1,0,.13A.34.34,0,0,1,4.33,15.39ZM3.18,14.22a.33.33,0,1,1,0-.66,1,1,0,0,0,.33-.06h0c.31-.06.63-.14,1-.23l.41-.12H5c.35-.1.69-.22,1-.35a.33.33,0,0,1,.42.2.52.52,0,0,1,0,.11.31.31,0,0,1-.22.31c-.35.13-.71.25-1.07.36a12.88,12.88,0,0,1-1.45.37l-.1,0a1.93,1.93,0,0,1-.42.05Zm-.87,0A.31.31,0,0,1,2,14,.91.91,0,0,0,2,13.81a.27.27,0,0,1,0-.12.33.33,0,0,1,.64-.13l.07.21a.28.28,0,0,1,0,.09.34.34,0,0,1-.23.33Zm0-.91-.13,0A.34.34,0,0,1,2,13a.69.69,0,0,1,0-.13l.31.13L2,12.79a.33.33,0,0,1,.64.11.36.36,0,0,1,0,.11l0,.08A.31.31,0,0,1,2.28,13.29ZM1.87,9.37a.3.3,0,0,1-.23-.1A.3.3,0,0,1,1.54,9a.33.33,0,0,1,.1-.24l.09-.08a.34.34,0,0,1,.47,0A.33.33,0,0,1,2.27,9a.36.36,0,0,1-.11.26l-.06,0A.29.29,0,0,1,1.87,9.37ZM1.49,8.14a.32.32,0,0,1-.31-.23.39.39,0,0,1-.09-.23V7.44h0a.32.32,0,0,1,.32-.33h0a.32.32,0,0,1,.33.32v.15l.06.14a.28.28,0,0,1,0,.09.34.34,0,0,1-.23.32Z"/><path class="cls-1" d="M1.8,3.79H1.57a.33.33,0,0,1-.21-.09v0A.64.64,0,0,1,1,3.5H1A2.73,2.73,0,0,1,.61.86.38.38,0,0,1,.72.75,1,1,0,0,1,1.55.21C2.14.12,2.77.05,3.4,0A1.29,1.29,0,0,1,4.83,1.2c0,.25.07.51.09.76a1.36,1.36,0,0,1-1,1.63l-.11,0c-.29,0-.58,0-.89.08A7.6,7.6,0,0,1,1.8,3.79Zm-.07-.66A6.41,6.41,0,0,0,2.79,3,9,9,0,0,1,3.7,3c.51-.19.61-.37.56-.93,0-.25,0-.49-.08-.73A.65.65,0,0,0,3.44.66c-.61,0-1.21.11-1.79.2l-.1,0a.08.08,0,0,1,0,0l.07.1v.05h0a.31.31,0,0,1,0,.08h0l0,0h0s0,0,0,.05a3.62,3.62,0,0,1,.19.4H2l0,.05a.14.14,0,0,0,0,.06,1.42,1.42,0,0,1,0,.22.13.13,0,0,1,0,.06.32.32,0,0,1-.27.32.33.33,0,0,1-.39-.26l0-.15a.08.08,0,0,1,0,0s0,0,0,0a3.09,3.09,0,0,0-.14-.32.38.38,0,0,1-.08-.11h0l0-.06v0A2.53,2.53,0,0,0,1.44,3h0L1.5,3a.24.24,0,0,1,.22.09Z"/><path class="cls-1" d="M2.47,4.69h0A.47.47,0,0,1,2,4.27a.27.27,0,0,1-.05-.15l0-.24a.17.17,0,0,1,0-.1.55.55,0,0,1,.19-.55.32.32,0,0,1,.49.09,1.67,1.67,0,0,1,.19.8,1.48,1.48,0,0,0,0,.21.32.32,0,0,1-.09.26A.35.35,0,0,1,2.47,4.69Zm-.39-.33h0Zm-.14-.63Z"/><path class="cls-1" d="M3.72,4.54h0a.31.31,0,0,1-.25-.13,1.18,1.18,0,0,1-.2-.7.75.75,0,0,0,0-.21.45.45,0,0,1,.11-.35A.38.38,0,0,1,3.68,3,.44.44,0,0,1,4,3.35a.27.27,0,0,1,0,.15l-.18,0v0h.19l0,.2a.59.59,0,0,1,0,.13A.58.58,0,0,1,4,4.44.33.33,0,0,1,3.72,4.54Zm0-1h0Zm.1-.19h0ZM4,3.3Z"/></g></g></svg>