<svg xmlns="http://www.w3.org/2000/svg" viewBox="0 0 87.98 88"><defs><style>.cls-1{fill:#8b93a5;}</style></defs><title>Volkswagen</title><g id="Layer_2" data-name="Layer 2"><g id="Layer_1-2" data-name="Layer 1"><path class="cls-1" d="M0,44A44,44,0,1,1,43.83,88,44.11,44.11,0,0,1,0,44ZM44,5.49A38.5,38.5,0,1,0,82.51,44,38.56,38.56,0,0,0,44,5.49Z"/><path class="cls-1" d="M27.54,15.47l.7,1.89q4.41,12.13,8.81,24.29a.63.63,0,0,0,.73.5q6.33,0,12.68,0a.65.65,0,0,0,.72-.53l9.27-25.58.23-.54c1.11.77,2.2,1.48,3.24,2.26a33.3,33.3,0,0,1,5,4.75.74.74,0,0,1,.14.87Q62.38,40.81,55.67,58.24c-.07.19-.14.38-.26.68L54.65,57,50.57,46.42a.58.58,0,0,0-.64-.45q-6.18,0-12.37,0a.61.61,0,0,0-.68.46c-1.56,4.07-3.13,8.12-4.7,12.18l-.13.31-1.32-3.4Q24.61,39.65,18.49,23.78a.67.67,0,0,1,.12-.79,33.73,33.73,0,0,1,8.58-7.34C27.28,15.59,27.39,15.55,27.54,15.47Z"/><path class="cls-1" d="M59.38,73l15.48-40.4a32.26,32.26,0,0,1,0,22.78,32.9,32.9,0,0,1-15.39,17.7Z"/><path class="cls-1" d="M12.89,33.34,28,72.66A31.83,31.83,0,0,1,14.19,58.05a32.72,32.72,0,0,1-1.43-24.69Z"/><path class="cls-1" d="M43.71,53.26c.09.2.15.33.2.46l8.16,21.16a.05.05,0,0,0,0,0c.31.85.26,1-.6,1.18-1.79.3-3.59.61-5.4.75a35.71,35.71,0,0,1-4.74,0,28.18,28.18,0,0,1-5.76-1c-.27-.07-.38-.2-.34-.47a3,3,0,0,1,.1-.52q4.13-10.68,8.24-21.36Z"/><path class="cls-1" d="M52.37,12.1,44.11,35c-2.78-7.68-5.53-15.25-8.3-22.89A33.76,33.76,0,0,1,52.37,12.1Z"/></g></g></svg>