<svg xmlns="http://www.w3.org/2000/svg" xmlns:xlink="http://www.w3.org/1999/xlink" viewBox="0 0 137.89 167.8"><defs><style>.cls-1{fill:url(#linear-gradient);}.cls-2{fill:url(#linear-gradient-2);}.cls-3{fill:url(#linear-gradient-3);}</style><linearGradient id="linear-gradient" x1="0.05" y1="83.98" x2="137.89" y2="83.98" gradientUnits="userSpaceOnUse"><stop offset="0" stop-color="#fc6e2f"/><stop offset="1" stop-color="#fe5b3d"/></linearGradient><linearGradient id="linear-gradient-2" x1="0.01" y1="143.91" x2="113.97" y2="143.91" xlink:href="#linear-gradient"/><linearGradient id="linear-gradient-3" x1="0" y1="23.93" x2="113.97" y2="23.93" xlink:href="#linear-gradient"/></defs><title>zgjidhje-bugjet_2</title><g id="Layer_2" data-name="Layer 2"><g id="Layer_1-2" data-name="Layer 1"><path class="cls-1" d="M76.26,60.19q24,0,48,0c9.33,0,13.52,4.11,13.58,13.31.06,7.33.1,14.67,0,22s-3.4,11-10.7,12a37.59,37.59,0,0,1-5,.26c-30.66,0-61.32,0-92,.06-5.85,0-10.62-1.49-14.59-6.06S7.12,93.26,2.93,89C-.93,85-.91,82.84,3,78.85c4.79-4.87,9.36-10,14.61-14.34a18.05,18.05,0,0,1,10.14-4.13C43.92,60,60.09,60.19,76.26,60.19Zm-.66,42c16.34,0,32.67,0,49,0,6.12,0,8-2,8.07-8.17.07-6.83.09-13.67,0-20.5-.08-5.77-2.1-7.81-7.91-7.82-32.33,0-64.66-.07-97,.1a11,11,0,0,0-6.61,2.64C16.66,72.4,12.69,76.94,8.3,81c-2.54,2.36-2,4,.24,6.11,3.89,3.65,7.73,7.37,11.31,11.32a11.29,11.29,0,0,0,9.26,3.82C44.6,102.15,60.1,102.23,75.6,102.22Z"/><path class="cls-2" d="M64.14,167.68c-12,0-24,.36-36-.19a20.77,20.77,0,0,1-11.08-4.39c-5.19-4.11-9.64-9.18-14.26-14-3.79-4-3.74-6.32.07-10.26,4.05-4.19,8.51-8,12.27-12.45,4.07-4.79,9.11-6.37,15-6.36,22.67,0,45.33-.11,68,0,12.32.09,15.73,3.76,15.74,15.92,0,6.33.09,12.67,0,19-.16,8.3-4.49,12.59-12.77,12.64C88.8,167.73,76.47,167.68,64.14,167.68Zm.2-5.53c12.16,0,24.31,0,36.47,0,5.74,0,7.83-2,8-7.78q.21-10.49,0-21c-.11-5.42-2.31-7.53-7.68-7.54-24.48,0-48.95-.06-73.43.07a9.51,9.51,0,0,0-5.9,1.87c-4.95,4.44-9.62,9.21-14.15,14.09-.73.78-.83,3.3-.16,4,4.64,5,9.42,9.9,14.49,14.45,1.4,1.26,3.94,1.71,6,1.73C40,162.23,52.19,162.15,64.34,162.15Z"/><path class="cls-3" d="M64.06,47.82c-11.65,0-23.3-.08-34.95,0a16.14,16.14,0,0,1-12.87-5.31c-4.29-4.64-9-8.93-13.35-13.47-3.85-4-3.85-6.22,0-10.19,4.87-5,9.55-10.29,14.93-14.69A18,18,0,0,1,28.13.25C52.26-.09,76.39,0,100.52.13c9.21.06,13.29,4.47,13.39,13.63q.12,10.23,0,20.47c-.11,9.28-4.15,13.45-13.41,13.56C88.36,47.92,76.21,47.82,64.06,47.82Zm.18-42c-12.14,0-24.29-.1-36.44.09a10.36,10.36,0,0,0-6.27,2.13c-4.84,4.3-9.37,9-13.78,13.73-.76.82-1,3.36-.34,4.06,4.78,5.09,9.72,10,14.89,14.73,1.3,1.18,3.64,1.66,5.51,1.67q36.44.15,72.88,0c5.67,0,7.94-2.2,8.06-7.81.16-7,.16-14,0-21-.12-5.7-2.28-7.66-8.06-7.68C88.54,5.81,76.39,5.84,64.24,5.84Z"/></g></g></svg>